Coordinates
version=1
nRows=49
nColumns=12
inDegrees=yes

Units are S.I. units (second, meters, Newtons, ...)
Angles are in degrees

endheader
time	SC_y	SC_z	SC_x	AC_y	AC_z	AC_x	GH_y	GH_z	GH_yy	EL_x	PS_y
       0.0              -47.54         -1.133          25.92          63.54            4.4          16.37         -153.7           65.3          12.89          100.4          136.6
   0.01986              -47.54          -1.13          25.92          63.54            4.4          16.37         -153.7          65.29          12.91          100.3          136.5
   0.03973              -47.54         -1.127          25.91          63.53          4.399          16.37         -153.6          65.28          12.93          100.3          136.5
   0.05959              -47.54         -1.124          25.91          63.53          4.399          16.36         -153.6          65.27          12.94          100.3          136.5
   0.07946              -47.54          -1.12          25.91          63.52          4.399          16.36         -153.5          65.26          12.97          100.3          136.5
   0.09932              -47.54         -1.117           25.9          63.52          4.398          16.35         -153.5          65.25          12.99          100.3          136.5
    0.1192              -47.54         -1.113           25.9          63.51          4.398          16.35         -153.4          65.24          13.01          100.3          136.5
    0.1391              -47.54         -1.109          25.89          63.51          4.398          16.34         -153.3          65.23          13.04          100.3          136.5
    0.1589              -47.54         -1.104          25.89           63.5          4.397          16.33         -153.3          65.22          13.06          100.3          136.5
    0.1788              -47.54         -1.099          25.88           63.5          4.397          16.33         -153.2           65.2          13.09          100.3          136.5
    0.1986              -47.54         -1.094          25.87          63.49          4.396          16.32         -153.1          65.19          13.12          100.2          136.5
    0.2185              -47.54         -1.089          25.87          63.48          4.396          16.31         -153.0          65.17          13.16          100.2          136.5
    0.2384              -47.54         -1.083          25.86          63.47          4.395           16.3         -152.9          65.15          13.19          100.2          136.5
    0.2582              -47.54         -1.076          25.85          63.46          4.395          16.29         -152.8          65.14          13.23          100.2          136.4
    0.2781              -47.54          -1.07          25.84          63.45          4.394          16.28         -152.7          65.11          13.27          100.2          136.4
     0.298              -47.54         -1.062          25.83          63.44          4.393          16.27         -152.6          65.09          13.32          100.1          136.4
    0.3178              -47.54         -1.054          25.82          63.43          4.392          16.26         -152.4          65.07          13.37          100.1          136.4
    0.3377              -47.54         -1.045          25.81          63.42          4.392          16.25         -152.3          65.04          13.42          100.1          136.4
    0.3576              -47.54         -1.035           25.8          63.41          4.391          16.24         -152.1          65.02          13.48          100.1          136.4
    0.3774              -47.54         -1.024          25.78          63.39           4.39          16.22         -151.9          64.98          13.54          100.0          136.3
    0.3973              -47.54         -1.013          25.77          63.37          4.389          16.21         -151.7          64.95          13.62          100.0          136.3
    0.4172              -47.54        -0.9998          25.75          63.36          4.387          16.19         -151.5          64.91          13.69          99.96          136.3
     0.437              -47.53        -0.9856          25.74          63.34          4.386          16.17         -151.3          64.87          13.78          99.92          136.2
    0.4569              -47.53        -0.9698          25.72          63.31          4.385          16.14         -151.0          64.83          13.88          99.87          136.2
    0.4767              -47.53        -0.9522          25.69          63.29          4.383          16.12         -150.7          64.78          13.98          99.82          136.2
    0.4966              -47.53        -0.9326          25.67          63.26          4.381          16.09         -150.4          64.72           14.1          99.76          136.1
    0.5165              -47.53        -0.9107          25.64          63.23          4.379          16.06         -150.1          64.66          14.23           99.7          136.1
    0.5363              -47.53         -0.886          25.61           63.2          4.377          16.03         -149.7          64.58          14.38          99.63          136.0
    0.5562              -47.53        -0.8581          25.57          63.16          4.374          15.99         -149.2           64.5          14.55          99.54          136.0
    0.5761              -47.53        -0.8265          25.54          63.11          4.371          15.94         -148.7          64.41          14.74          99.45          135.9
    0.5959              -47.53        -0.7903          25.49          63.06          4.368          15.89         -148.1          64.31          14.96          99.34          135.8
    0.6158              -47.53        -0.7489          25.44          63.01          4.364          15.83         -147.4          64.19          15.21          99.22          135.8
    0.6357              -47.53         -0.701          25.38          62.94          4.359          15.77         -146.6          64.05           15.5          99.08          135.7
    0.6555              -47.52        -0.6454          25.31          62.86          4.354          15.69         -145.7          63.89          15.83          98.91          135.5
    0.6754              -47.52        -0.5803          25.22          62.77          4.348           15.6         -144.6           63.7          16.23          98.72          135.4
    0.6953              -47.52        -0.5035          25.13          62.66           4.34          15.49         -143.3          63.48          16.69          98.49          135.3
    0.7151              -47.52        -0.4123          25.01          62.54          4.332          15.36         -141.8          63.22          17.24          98.23          135.1
     0.735              -47.51         -0.303          24.87          62.38          4.321          15.21         -140.0           62.9           17.9           97.9          134.8
    0.7548              -47.51        -0.1708          24.71           62.2          4.309          15.02         -137.8          62.52           18.7          97.51          134.6
    0.7747               -47.5      -0.009235           24.5          61.97          4.294           14.8         -135.1          62.05          19.68          97.03          134.2
    0.7946               -47.5         0.1901          24.25           61.7          4.275          14.52         -131.8          61.48          20.88          96.44          133.8
    0.8144              -47.49         0.4388          23.94          61.35          4.251          14.17         -127.7          60.76          22.38          95.71          133.3
    0.8343              -47.48          0.752          23.54          60.91          4.222          13.73         -122.5          59.85          24.28          94.78          132.7
    0.8542              -47.47           1.15          23.04          60.36          4.184          13.17         -116.0           58.7          26.68          93.61          131.8
     0.874              -47.45           1.66           22.4          59.65          4.136          12.45         -107.5          57.23          29.76           92.1          130.8
    0.8939              -47.43          2.314          21.57          58.73          4.074          11.53         -96.71          55.34          33.71          90.17          129.4
    0.9138               -47.4          3.149          20.52          57.57          3.995          10.36         -82.88          52.93          38.76           87.7          127.7
    0.9336              -47.37            4.2          19.19           56.1          3.896          8.887          -65.5          49.89           45.1          84.59          125.5
    0.9535              -47.32           5.48          17.58          54.32          3.775          7.089         -44.32          46.19          52.83          80.81          122.9
